#N canvas 902 368 450 300 10;
#X msg 137 42 listen 8765;
#X obj 137 67 netreceive -u -b;
#X obj 70 233 print;
#X obj 137 92 oscparse;
#X obj 137 120 list trim;
#X obj 137 150 route pinky;
#X obj 137 177 route bone1x;
#X obj 221 177 route bone1x;
#X obj 221 150 route ring;
#X connect 0 0 1 0;
#X connect 1 0 3 0;
#X connect 3 0 4 0;
#X connect 4 0 5 0;
#X connect 4 0 8 0;
#X connect 5 0 6 0;
#X connect 6 0 2 0;
#X connect 7 0 2 0;
#X connect 8 0 7 0;
