#N canvas 352 0 972 685 10;
#X obj 6 8 inlet;
#X floatatom 6 158 5 0 0 0 - - -, f 5;
#X floatatom 40 158 5 0 0 0 - - -, f 5;
#X floatatom 74 158 5 0 0 0 - - -, f 5;
#X obj 6 106 route palm;
#X obj 109 106 route wrist;
#X obj 49 629 outlet;
#X obj 6 134 route x y z;
#X floatatom 109 158 5 0 0 0 - - -, f 5;
#X floatatom 143 158 5 0 0 0 - - -, f 5;
#X floatatom 177 158 5 0 0 0 - - -, f 5;
#X obj 109 134 route x y z;
#X obj 213 133 route knuckle joint1 joint2 joint3;
#X floatatom 213 309 5 0 0 0 - - -, f 5;
#X floatatom 247 309 5 0 0 0 - - -, f 5;
#X floatatom 281 309 5 0 0 0 - - -, f 5;
#X obj 213 285 route x y z;
#X floatatom 263 266 5 0 0 0 - - -, f 5;
#X floatatom 297 266 5 0 0 0 - - -, f 5;
#X floatatom 331 266 5 0 0 0 - - -, f 5;
#X obj 263 242 route x y z;
#X floatatom 313 223 5 0 0 0 - - -, f 5;
#X floatatom 347 223 5 0 0 0 - - -, f 5;
#X floatatom 381 223 5 0 0 0 - - -, f 5;
#X obj 313 199 route x y z;
#X floatatom 363 180 5 0 0 0 - - -, f 5;
#X floatatom 397 180 5 0 0 0 - - -, f 5;
#X floatatom 431 180 5 0 0 0 - - -, f 5;
#X obj 363 156 route x y z;
#X obj 464 133 route knuckle joint1 joint2 joint3;
#X floatatom 464 309 5 0 0 0 - - -, f 5;
#X floatatom 498 309 5 0 0 0 - - -, f 5;
#X floatatom 532 309 5 0 0 0 - - -, f 5;
#X obj 464 285 route x y z;
#X floatatom 514 266 5 0 0 0 - - -, f 5;
#X floatatom 548 266 5 0 0 0 - - -, f 5;
#X floatatom 582 266 5 0 0 0 - - -, f 5;
#X obj 514 242 route x y z;
#X floatatom 564 223 5 0 0 0 - - -, f 5;
#X floatatom 598 223 5 0 0 0 - - -, f 5;
#X floatatom 632 223 5 0 0 0 - - -, f 5;
#X obj 564 199 route x y z;
#X floatatom 614 180 5 0 0 0 - - -, f 5;
#X floatatom 648 180 5 0 0 0 - - -, f 5;
#X floatatom 682 180 5 0 0 0 - - -, f 5;
#X obj 614 156 route x y z;
#X obj 213 387 route knuckle joint1 joint2 joint3;
#X floatatom 213 563 5 0 0 0 - - -, f 5;
#X floatatom 247 563 5 0 0 0 - - -, f 5;
#X floatatom 281 563 5 0 0 0 - - -, f 5;
#X obj 213 539 route x y z;
#X floatatom 263 520 5 0 0 0 - - -, f 5;
#X floatatom 297 520 5 0 0 0 - - -, f 5;
#X floatatom 331 520 5 0 0 0 - - -, f 5;
#X obj 263 496 route x y z;
#X floatatom 313 477 5 0 0 0 - - -, f 5;
#X floatatom 347 477 5 0 0 0 - - -, f 5;
#X floatatom 381 477 5 0 0 0 - - -, f 5;
#X obj 313 453 route x y z;
#X floatatom 363 434 5 0 0 0 - - -, f 5;
#X floatatom 397 434 5 0 0 0 - - -, f 5;
#X floatatom 431 434 5 0 0 0 - - -, f 5;
#X obj 363 410 route x y z;
#X obj 465 387 route knuckle joint1 joint2 joint3;
#X floatatom 465 563 5 0 0 0 - - -, f 5;
#X floatatom 499 563 5 0 0 0 - - -, f 5;
#X floatatom 533 563 5 0 0 0 - - -, f 5;
#X obj 465 539 route x y z;
#X floatatom 515 520 5 0 0 0 - - -, f 5;
#X floatatom 549 520 5 0 0 0 - - -, f 5;
#X floatatom 583 520 5 0 0 0 - - -, f 5;
#X obj 515 496 route x y z;
#X floatatom 565 477 5 0 0 0 - - -, f 5;
#X floatatom 599 477 5 0 0 0 - - -, f 5;
#X floatatom 633 477 5 0 0 0 - - -, f 5;
#X obj 565 453 route x y z;
#X floatatom 615 434 5 0 0 0 - - -, f 5;
#X floatatom 649 434 5 0 0 0 - - -, f 5;
#X obj 615 410 route x y z;
#X obj 716 133 route knuckle joint1 joint2 joint3;
#X floatatom 716 309 5 0 0 0 - - -, f 5;
#X floatatom 750 309 5 0 0 0 - - -, f 5;
#X floatatom 784 309 5 0 0 0 - - -, f 5;
#X obj 716 285 route x y z;
#X floatatom 766 266 5 0 0 0 - - -, f 5;
#X floatatom 800 266 5 0 0 0 - - -, f 5;
#X floatatom 834 266 5 0 0 0 - - -, f 5;
#X obj 766 242 route x y z;
#X floatatom 816 223 5 0 0 0 - - -, f 5;
#X floatatom 850 223 5 0 0 0 - - -, f 5;
#X floatatom 884 223 5 0 0 0 - - -, f 5;
#X obj 816 199 route x y z;
#X floatatom 866 180 5 0 0 0 - - -, f 5;
#X floatatom 900 180 5 0 0 0 - - -, f 5;
#X floatatom 934 180 5 0 0 0 - - -, f 5;
#X obj 866 156 route x y z;
#X obj 6 32 route Left;
#X obj 6 56 s L;
#X obj 6 81 r L;
#X obj 109 81 r L;
#X obj 213 81 r L;
#X obj 464 81 r L;
#X obj 716 81 r L;
#X obj 213 335 r L;
#X obj 465 335 r L;
#X obj 213 106 route TYPE_THUMB;
#X obj 464 106 route TYPE_INDEX;
#X obj 716 106 route TYPE_MIDDLE;
#X obj 213 360 route TYPE_RING;
#X obj 465 360 route TYPE_PINKY;
#X connect 0 0 96 0;
#X connect 4 0 7 0;
#X connect 5 0 11 0;
#X connect 7 0 1 0;
#X connect 7 1 2 0;
#X connect 7 2 3 0;
#X connect 11 0 8 0;
#X connect 11 1 9 0;
#X connect 11 2 10 0;
#X connect 12 0 16 0;
#X connect 12 1 20 0;
#X connect 12 2 24 0;
#X connect 12 3 28 0;
#X connect 16 0 13 0;
#X connect 16 1 14 0;
#X connect 16 2 15 0;
#X connect 20 0 17 0;
#X connect 20 1 18 0;
#X connect 20 2 19 0;
#X connect 24 0 21 0;
#X connect 24 1 22 0;
#X connect 24 2 23 0;
#X connect 28 0 25 0;
#X connect 28 1 26 0;
#X connect 28 2 27 0;
#X connect 29 0 33 0;
#X connect 29 1 37 0;
#X connect 29 2 41 0;
#X connect 29 3 45 0;
#X connect 33 0 30 0;
#X connect 33 1 31 0;
#X connect 33 2 32 0;
#X connect 37 0 34 0;
#X connect 37 1 35 0;
#X connect 37 2 36 0;
#X connect 41 0 38 0;
#X connect 41 1 39 0;
#X connect 41 2 40 0;
#X connect 45 0 42 0;
#X connect 45 1 43 0;
#X connect 45 2 44 0;
#X connect 46 0 50 0;
#X connect 46 1 54 0;
#X connect 46 2 58 0;
#X connect 46 3 62 0;
#X connect 50 0 47 0;
#X connect 50 1 48 0;
#X connect 50 2 49 0;
#X connect 54 0 51 0;
#X connect 54 1 52 0;
#X connect 54 2 53 0;
#X connect 58 0 55 0;
#X connect 58 1 56 0;
#X connect 58 2 57 0;
#X connect 62 0 59 0;
#X connect 62 1 60 0;
#X connect 62 2 61 0;
#X connect 63 0 67 0;
#X connect 63 1 71 0;
#X connect 63 2 75 0;
#X connect 63 3 78 0;
#X connect 67 0 64 0;
#X connect 67 1 65 0;
#X connect 67 2 66 0;
#X connect 71 0 68 0;
#X connect 71 1 69 0;
#X connect 71 2 70 0;
#X connect 75 0 72 0;
#X connect 75 1 73 0;
#X connect 75 2 74 0;
#X connect 78 0 76 0;
#X connect 78 1 77 0;
#X connect 79 0 83 0;
#X connect 79 1 87 0;
#X connect 79 2 91 0;
#X connect 79 3 95 0;
#X connect 83 0 80 0;
#X connect 83 1 81 0;
#X connect 83 2 82 0;
#X connect 87 0 84 0;
#X connect 87 1 85 0;
#X connect 87 2 86 0;
#X connect 91 0 88 0;
#X connect 91 1 89 0;
#X connect 91 2 90 0;
#X connect 95 0 92 0;
#X connect 95 1 93 0;
#X connect 95 2 94 0;
#X connect 96 0 97 0;
#X connect 98 0 4 0;
#X connect 99 0 5 0;
#X connect 100 0 105 0;
#X connect 101 0 106 0;
#X connect 102 0 107 0;
#X connect 103 0 108 0;
#X connect 104 0 109 0;
#X connect 105 0 12 0;
#X connect 106 0 29 0;
#X connect 107 0 79 0;
#X connect 108 0 46 0;
#X connect 109 0 63 0;
