#N canvas -7 24 1533 660 10;
#X obj 6 8 inlet;
#X floatatom 6 158 5 0 0 0 - - -, f 5;
#X floatatom 60 158 5 0 0 0 - - -, f 5;
#X obj 60 134 route y;
#X obj 110 134 route z;
#X floatatom 110 158 5 0 0 0 - - -, f 5;
#X obj 6 106 route palm;
#X obj 6 134 route x;
#X floatatom 160 158 5 0 0 0 - - -, f 5;
#X floatatom 214 158 5 0 0 0 - - -, f 5;
#X obj 214 134 route y;
#X obj 264 134 route z;
#X floatatom 264 158 5 0 0 0 - - -, f 5;
#X obj 160 134 route x;
#X obj 160 106 route wrist;
#X floatatom 313 258 5 0 0 0 - - -, f 5;
#X floatatom 322 218 5 0 0 0 - - -, f 5;
#X obj 322 194 route y;
#X obj 332 154 route z;
#X floatatom 332 178 5 0 0 0 - - -, f 5;
#X obj 313 234 route x;
#X obj 313 105 route thumb;
#X obj 637 105 route index;
#X obj 313 134 route knuckle;
#X floatatom 399 258 5 0 0 0 - - -, f 5;
#X floatatom 408 218 5 0 0 0 - - -, f 5;
#X obj 408 194 route y;
#X obj 418 154 route z;
#X floatatom 418 178 5 0 0 0 - - -, f 5;
#X obj 399 234 route x;
#X obj 8 517 outlet;
#X floatatom 478 258 5 0 0 0 - - -, f 5;
#X floatatom 487 218 5 0 0 0 - - -, f 5;
#X obj 487 194 route y;
#X obj 497 154 route z;
#X floatatom 497 178 5 0 0 0 - - -, f 5;
#X obj 478 234 route x;
#X floatatom 557 258 5 0 0 0 - - -, f 5;
#X floatatom 566 218 5 0 0 0 - - -, f 5;
#X obj 566 194 route y;
#X obj 576 154 route z;
#X floatatom 576 178 5 0 0 0 - - -, f 5;
#X obj 557 234 route x;
#X obj 399 134 route joint1;
#X obj 478 134 route joint2;
#X obj 557 134 route joint3;
#X floatatom 637 258 5 0 0 0 - - -, f 5;
#X floatatom 646 218 5 0 0 0 - - -, f 5;
#X obj 646 194 route y;
#X obj 656 154 route z;
#X floatatom 656 178 5 0 0 0 - - -, f 5;
#X obj 637 234 route x;
#X obj 637 134 route knuckle;
#X floatatom 723 258 5 0 0 0 - - -, f 5;
#X floatatom 732 218 5 0 0 0 - - -, f 5;
#X obj 732 194 route y;
#X obj 742 154 route z;
#X floatatom 742 178 5 0 0 0 - - -, f 5;
#X obj 723 234 route x;
#X floatatom 802 258 5 0 0 0 - - -, f 5;
#X floatatom 811 218 5 0 0 0 - - -, f 5;
#X obj 811 194 route y;
#X obj 821 154 route z;
#X floatatom 821 178 5 0 0 0 - - -, f 5;
#X obj 802 234 route x;
#X floatatom 881 258 5 0 0 0 - - -, f 5;
#X floatatom 890 218 5 0 0 0 - - -, f 5;
#X obj 890 194 route y;
#X obj 900 154 route z;
#X floatatom 900 178 5 0 0 0 - - -, f 5;
#X obj 881 234 route x;
#X obj 723 134 route joint1;
#X obj 802 134 route joint2;
#X obj 881 134 route joint3;
#X floatatom 312 468 5 0 0 0 - - -, f 5;
#X floatatom 321 428 5 0 0 0 - - -, f 5;
#X obj 321 404 route y;
#X obj 331 364 route z;
#X floatatom 331 388 5 0 0 0 - - -, f 5;
#X obj 312 444 route x;
#X obj 312 344 route knuckle;
#X floatatom 398 468 5 0 0 0 - - -, f 5;
#X floatatom 407 428 5 0 0 0 - - -, f 5;
#X obj 407 404 route y;
#X obj 417 364 route z;
#X floatatom 417 388 5 0 0 0 - - -, f 5;
#X obj 398 444 route x;
#X floatatom 477 468 5 0 0 0 - - -, f 5;
#X floatatom 486 428 5 0 0 0 - - -, f 5;
#X obj 486 404 route y;
#X obj 496 364 route z;
#X floatatom 496 388 5 0 0 0 - - -, f 5;
#X obj 477 444 route x;
#X floatatom 556 468 5 0 0 0 - - -, f 5;
#X floatatom 565 428 5 0 0 0 - - -, f 5;
#X obj 565 404 route y;
#X obj 575 364 route z;
#X floatatom 575 388 5 0 0 0 - - -, f 5;
#X obj 556 444 route x;
#X obj 398 344 route joint1;
#X obj 477 344 route joint2;
#X obj 556 344 route joint3;
#X floatatom 636 468 5 0 0 0 - - -, f 5;
#X floatatom 645 428 5 0 0 0 - - -, f 5;
#X obj 645 404 route y;
#X obj 655 364 route z;
#X floatatom 655 388 5 0 0 0 - - -, f 5;
#X obj 636 444 route x;
#X obj 636 344 route knuckle;
#X floatatom 722 468 5 0 0 0 - - -, f 5;
#X floatatom 731 428 5 0 0 0 - - -, f 5;
#X obj 731 404 route y;
#X obj 741 364 route z;
#X floatatom 741 388 5 0 0 0 - - -, f 5;
#X obj 722 444 route x;
#X floatatom 801 468 5 0 0 0 - - -, f 5;
#X floatatom 810 428 5 0 0 0 - - -, f 5;
#X obj 810 404 route y;
#X obj 820 364 route z;
#X floatatom 820 388 5 0 0 0 - - -, f 5;
#X obj 801 444 route x;
#X floatatom 880 468 5 0 0 0 - - -, f 5;
#X floatatom 889 428 5 0 0 0 - - -, f 5;
#X obj 889 404 route y;
#X obj 899 364 route z;
#X floatatom 899 388 5 0 0 0 - - -, f 5;
#X obj 880 444 route x;
#X obj 722 344 route joint1;
#X obj 801 344 route joint2;
#X obj 880 344 route joint3;
#X floatatom 962 258 5 0 0 0 - - -, f 5;
#X floatatom 971 218 5 0 0 0 - - -, f 5;
#X obj 971 194 route y;
#X obj 981 154 route z;
#X floatatom 981 178 5 0 0 0 - - -, f 5;
#X obj 962 234 route x;
#X obj 962 134 route knuckle;
#X floatatom 1048 258 5 0 0 0 - - -, f 5;
#X floatatom 1057 218 5 0 0 0 - - -, f 5;
#X obj 1057 194 route y;
#X obj 1067 154 route z;
#X floatatom 1067 178 5 0 0 0 - - -, f 5;
#X obj 1048 234 route x;
#X floatatom 1127 258 5 0 0 0 - - -, f 5;
#X floatatom 1136 218 5 0 0 0 - - -, f 5;
#X obj 1136 194 route y;
#X obj 1146 154 route z;
#X floatatom 1146 178 5 0 0 0 - - -, f 5;
#X obj 1127 234 route x;
#X floatatom 1206 258 5 0 0 0 - - -, f 5;
#X floatatom 1215 218 5 0 0 0 - - -, f 5;
#X obj 1215 194 route y;
#X obj 1225 154 route z;
#X floatatom 1225 178 5 0 0 0 - - -, f 5;
#X obj 1206 234 route x;
#X obj 1048 134 route joint1;
#X obj 1127 134 route joint2;
#X obj 1206 134 route joint3;
#X obj 962 105 route middle;
#X obj 312 315 route ring;
#X obj 636 315 route pinky;
#X obj 6 32 route Right;
#X obj 6 56 s R;
#X obj 6 81 r R;
#X obj 160 80 r R;
#X obj 313 80 r R;
#X obj 637 80 r R;
#X obj 962 80 r R;
#X obj 312 292 r R;
#X obj 636 292 r R;
#X connect 0 0 161 0;
#X connect 3 0 2 0;
#X connect 4 0 5 0;
#X connect 6 0 7 0;
#X connect 6 0 3 0;
#X connect 6 0 4 0;
#X connect 7 0 1 0;
#X connect 10 0 9 0;
#X connect 11 0 12 0;
#X connect 13 0 8 0;
#X connect 14 0 13 0;
#X connect 14 0 10 0;
#X connect 14 0 11 0;
#X connect 17 0 16 0;
#X connect 18 0 19 0;
#X connect 20 0 15 0;
#X connect 21 0 23 0;
#X connect 21 0 43 0;
#X connect 21 0 44 0;
#X connect 21 0 45 0;
#X connect 22 0 52 0;
#X connect 22 0 71 0;
#X connect 22 0 72 0;
#X connect 22 0 73 0;
#X connect 23 0 20 0;
#X connect 23 0 17 0;
#X connect 23 0 18 0;
#X connect 26 0 25 0;
#X connect 27 0 28 0;
#X connect 29 0 24 0;
#X connect 33 0 32 0;
#X connect 34 0 35 0;
#X connect 36 0 31 0;
#X connect 39 0 38 0;
#X connect 40 0 41 0;
#X connect 42 0 37 0;
#X connect 43 0 29 0;
#X connect 43 0 26 0;
#X connect 43 0 27 0;
#X connect 44 0 36 0;
#X connect 44 0 33 0;
#X connect 44 0 34 0;
#X connect 45 0 42 0;
#X connect 45 0 39 0;
#X connect 45 0 40 0;
#X connect 48 0 47 0;
#X connect 49 0 50 0;
#X connect 51 0 46 0;
#X connect 52 0 51 0;
#X connect 52 0 48 0;
#X connect 52 0 49 0;
#X connect 55 0 54 0;
#X connect 56 0 57 0;
#X connect 58 0 53 0;
#X connect 61 0 60 0;
#X connect 62 0 63 0;
#X connect 64 0 59 0;
#X connect 67 0 66 0;
#X connect 68 0 69 0;
#X connect 70 0 65 0;
#X connect 71 0 58 0;
#X connect 71 0 55 0;
#X connect 71 0 56 0;
#X connect 72 0 64 0;
#X connect 72 0 61 0;
#X connect 72 0 62 0;
#X connect 73 0 70 0;
#X connect 73 0 67 0;
#X connect 73 0 68 0;
#X connect 76 0 75 0;
#X connect 77 0 78 0;
#X connect 79 0 74 0;
#X connect 80 0 79 0;
#X connect 80 0 76 0;
#X connect 80 0 77 0;
#X connect 83 0 82 0;
#X connect 84 0 85 0;
#X connect 86 0 81 0;
#X connect 89 0 88 0;
#X connect 90 0 91 0;
#X connect 92 0 87 0;
#X connect 95 0 94 0;
#X connect 96 0 97 0;
#X connect 98 0 93 0;
#X connect 99 0 86 0;
#X connect 99 0 83 0;
#X connect 99 0 84 0;
#X connect 100 0 92 0;
#X connect 100 0 89 0;
#X connect 100 0 90 0;
#X connect 101 0 98 0;
#X connect 101 0 95 0;
#X connect 101 0 96 0;
#X connect 104 0 103 0;
#X connect 105 0 106 0;
#X connect 107 0 102 0;
#X connect 108 0 107 0;
#X connect 108 0 104 0;
#X connect 108 0 105 0;
#X connect 111 0 110 0;
#X connect 112 0 113 0;
#X connect 114 0 109 0;
#X connect 117 0 116 0;
#X connect 118 0 119 0;
#X connect 120 0 115 0;
#X connect 123 0 122 0;
#X connect 124 0 125 0;
#X connect 126 0 121 0;
#X connect 127 0 114 0;
#X connect 127 0 111 0;
#X connect 127 0 112 0;
#X connect 128 0 120 0;
#X connect 128 0 117 0;
#X connect 128 0 118 0;
#X connect 129 0 126 0;
#X connect 129 0 123 0;
#X connect 129 0 124 0;
#X connect 132 0 131 0;
#X connect 133 0 134 0;
#X connect 135 0 130 0;
#X connect 136 0 135 0;
#X connect 136 0 132 0;
#X connect 136 0 133 0;
#X connect 139 0 138 0;
#X connect 140 0 141 0;
#X connect 142 0 137 0;
#X connect 145 0 144 0;
#X connect 146 0 147 0;
#X connect 148 0 143 0;
#X connect 151 0 150 0;
#X connect 152 0 153 0;
#X connect 154 0 149 0;
#X connect 155 0 142 0;
#X connect 155 0 139 0;
#X connect 155 0 140 0;
#X connect 156 0 148 0;
#X connect 156 0 145 0;
#X connect 156 0 146 0;
#X connect 157 0 154 0;
#X connect 157 0 151 0;
#X connect 157 0 152 0;
#X connect 158 0 136 0;
#X connect 158 0 155 0;
#X connect 158 0 156 0;
#X connect 158 0 157 0;
#X connect 159 0 80 0;
#X connect 159 0 99 0;
#X connect 159 0 100 0;
#X connect 159 0 101 0;
#X connect 160 0 108 0;
#X connect 160 0 127 0;
#X connect 160 0 128 0;
#X connect 160 0 129 0;
#X connect 161 0 162 0;
#X connect 163 0 6 0;
#X connect 164 0 14 0;
#X connect 165 0 21 0;
#X connect 166 0 22 0;
#X connect 167 0 158 0;
#X connect 168 0 159 0;
#X connect 169 0 160 0;
