#N canvas 47 10 1112 295 10;
#X obj 6 8 inlet;
#X floatatom 6 108 5 0 0 0 - - -, f 5;
#X floatatom 60 108 5 0 0 0 - - -, f 5;
#X obj 60 84 route y;
#X obj 110 84 route z;
#X floatatom 110 108 5 0 0 0 - - -, f 5;
#X obj 6 56 route palm;
#X obj 6 84 route x;
#X floatatom 160 108 5 0 0 0 - - -, f 5;
#X floatatom 214 108 5 0 0 0 - - -, f 5;
#X obj 214 84 route y;
#X obj 264 84 route z;
#X floatatom 264 108 5 0 0 0 - - -, f 5;
#X obj 160 84 route x;
#X obj 160 56 route wrist;
#X floatatom 313 208 5 0 0 0 - - -, f 5;
#X floatatom 322 168 5 0 0 0 - - -, f 5;
#X obj 322 144 route y;
#X obj 332 104 route z;
#X floatatom 332 128 5 0 0 0 - - -, f 5;
#X obj 313 184 route x;
#X obj 313 55 route thumb;
#X obj 473 55 route index;
#X obj 633 54 route middle;
#X obj 793 55 route ring;
#X obj 953 55 route pinky;
#X obj 313 84 route knuckle;
#X floatatom 399 208 5 0 0 0 - - -, f 5;
#X floatatom 408 168 5 0 0 0 - - -, f 5;
#X obj 408 144 route y;
#X obj 418 104 route z;
#X floatatom 418 128 5 0 0 0 - - -, f 5;
#X obj 399 184 route x;
#X obj 399 84 route joint;
#X floatatom 473 208 5 0 0 0 - - -, f 5;
#X floatatom 482 168 5 0 0 0 - - -, f 5;
#X obj 482 144 route y;
#X obj 492 104 route z;
#X floatatom 492 128 5 0 0 0 - - -, f 5;
#X obj 473 184 route x;
#X obj 473 84 route knuckle;
#X floatatom 559 208 5 0 0 0 - - -, f 5;
#X floatatom 568 168 5 0 0 0 - - -, f 5;
#X obj 568 144 route y;
#X obj 578 104 route z;
#X floatatom 578 128 5 0 0 0 - - -, f 5;
#X obj 559 184 route x;
#X obj 559 84 route joint;
#X floatatom 633 208 5 0 0 0 - - -, f 5;
#X floatatom 642 168 5 0 0 0 - - -, f 5;
#X obj 642 144 route y;
#X obj 652 104 route z;
#X floatatom 652 128 5 0 0 0 - - -, f 5;
#X obj 633 184 route x;
#X obj 633 84 route knuckle;
#X floatatom 719 208 5 0 0 0 - - -, f 5;
#X floatatom 728 168 5 0 0 0 - - -, f 5;
#X obj 728 144 route y;
#X obj 738 104 route z;
#X floatatom 738 128 5 0 0 0 - - -, f 5;
#X obj 719 184 route x;
#X obj 719 84 route joint;
#X floatatom 793 208 5 0 0 0 - - -, f 5;
#X floatatom 802 168 5 0 0 0 - - -, f 5;
#X obj 802 144 route y;
#X obj 812 104 route z;
#X floatatom 812 128 5 0 0 0 - - -, f 5;
#X obj 793 184 route x;
#X obj 793 84 route knuckle;
#X floatatom 879 208 5 0 0 0 - - -, f 5;
#X floatatom 888 168 5 0 0 0 - - -, f 5;
#X obj 888 144 route y;
#X obj 898 104 route z;
#X floatatom 898 128 5 0 0 0 - - -, f 5;
#X obj 879 184 route x;
#X obj 879 84 route joint;
#X floatatom 953 208 5 0 0 0 - - -, f 5;
#X floatatom 962 168 5 0 0 0 - - -, f 5;
#X obj 962 144 route y;
#X obj 972 104 route z;
#X floatatom 972 128 5 0 0 0 - - -, f 5;
#X obj 953 184 route x;
#X obj 953 84 route knuckle;
#X floatatom 1039 208 5 0 0 0 - - -, f 5;
#X floatatom 1048 168 5 0 0 0 - - -, f 5;
#X obj 1048 144 route y;
#X obj 1058 104 route z;
#X floatatom 1058 128 5 0 0 0 - - -, f 5;
#X obj 1039 184 route x;
#X obj 1039 84 route joint;
#X obj 6 32 route Right;
#X connect 0 0 90 0;
#X connect 3 0 2 0;
#X connect 4 0 5 0;
#X connect 6 0 7 0;
#X connect 6 0 3 0;
#X connect 6 0 4 0;
#X connect 7 0 1 0;
#X connect 10 0 9 0;
#X connect 11 0 12 0;
#X connect 13 0 8 0;
#X connect 14 0 13 0;
#X connect 14 0 10 0;
#X connect 14 0 11 0;
#X connect 17 0 16 0;
#X connect 18 0 19 0;
#X connect 20 0 15 0;
#X connect 21 0 26 0;
#X connect 21 0 33 0;
#X connect 22 0 40 0;
#X connect 22 0 47 0;
#X connect 23 0 54 0;
#X connect 23 0 61 0;
#X connect 24 0 68 0;
#X connect 24 0 75 0;
#X connect 25 0 82 0;
#X connect 25 0 89 0;
#X connect 26 0 20 0;
#X connect 26 0 17 0;
#X connect 26 0 18 0;
#X connect 29 0 28 0;
#X connect 30 0 31 0;
#X connect 32 0 27 0;
#X connect 33 0 32 0;
#X connect 33 0 29 0;
#X connect 33 0 30 0;
#X connect 36 0 35 0;
#X connect 37 0 38 0;
#X connect 39 0 34 0;
#X connect 40 0 39 0;
#X connect 40 0 36 0;
#X connect 40 0 37 0;
#X connect 43 0 42 0;
#X connect 44 0 45 0;
#X connect 46 0 41 0;
#X connect 47 0 46 0;
#X connect 47 0 43 0;
#X connect 47 0 44 0;
#X connect 50 0 49 0;
#X connect 51 0 52 0;
#X connect 53 0 48 0;
#X connect 54 0 53 0;
#X connect 54 0 50 0;
#X connect 54 0 51 0;
#X connect 57 0 56 0;
#X connect 58 0 59 0;
#X connect 60 0 55 0;
#X connect 61 0 60 0;
#X connect 61 0 57 0;
#X connect 61 0 58 0;
#X connect 64 0 63 0;
#X connect 65 0 66 0;
#X connect 67 0 62 0;
#X connect 68 0 67 0;
#X connect 68 0 64 0;
#X connect 68 0 65 0;
#X connect 71 0 70 0;
#X connect 72 0 73 0;
#X connect 74 0 69 0;
#X connect 75 0 74 0;
#X connect 75 0 71 0;
#X connect 75 0 72 0;
#X connect 78 0 77 0;
#X connect 79 0 80 0;
#X connect 81 0 76 0;
#X connect 82 0 81 0;
#X connect 82 0 78 0;
#X connect 82 0 79 0;
#X connect 85 0 84 0;
#X connect 86 0 87 0;
#X connect 88 0 83 0;
#X connect 89 0 88 0;
#X connect 89 0 85 0;
#X connect 89 0 86 0;
#X connect 90 0 6 0;
#X connect 90 0 14 0;
#X connect 90 0 21 0;
#X connect 90 0 22 0;
#X connect 90 0 23 0;
#X connect 90 0 24 0;
#X connect 90 0 25 0;
