#N canvas 109 0 973 676 10;
#X obj 6 8 inlet;
#X floatatom 6 158 5 0 0 0 - - -, f 5;
#X floatatom 40 158 5 0 0 0 - - -, f 5;
#X floatatom 74 158 5 0 0 0 - - -, f 5;
#X obj 6 106 route palm;
#X obj 109 106 route wrist;
#X obj 213 106 route thumb;
#X obj 49 629 outlet;
#X obj 6 32 route Right;
#X obj 6 56 s R;
#X obj 6 81 r R;
#X obj 109 81 r R;
#X obj 213 81 r R;
#X obj 6 134 route x y z;
#X floatatom 109 158 5 0 0 0 - - -, f 5;
#X floatatom 143 158 5 0 0 0 - - -, f 5;
#X floatatom 177 158 5 0 0 0 - - -, f 5;
#X obj 109 134 route x y z;
#X obj 213 133 route knuckle joint1 joint2 joint3;
#X floatatom 213 309 5 0 0 0 - - -, f 5;
#X floatatom 247 309 5 0 0 0 - - -, f 5;
#X floatatom 281 309 5 0 0 0 - - -, f 5;
#X obj 213 285 route x y z;
#X floatatom 263 266 5 0 0 0 - - -, f 5;
#X floatatom 297 266 5 0 0 0 - - -, f 5;
#X floatatom 331 266 5 0 0 0 - - -, f 5;
#X obj 263 242 route x y z;
#X floatatom 313 223 5 0 0 0 - - -, f 5;
#X floatatom 347 223 5 0 0 0 - - -, f 5;
#X floatatom 381 223 5 0 0 0 - - -, f 5;
#X obj 313 199 route x y z;
#X floatatom 363 180 5 0 0 0 - - -, f 5;
#X floatatom 397 180 5 0 0 0 - - -, f 5;
#X floatatom 431 180 5 0 0 0 - - -, f 5;
#X obj 363 156 route x y z;
#X obj 464 81 r R;
#X obj 464 133 route knuckle joint1 joint2 joint3;
#X floatatom 464 309 5 0 0 0 - - -, f 5;
#X floatatom 498 309 5 0 0 0 - - -, f 5;
#X floatatom 532 309 5 0 0 0 - - -, f 5;
#X obj 464 285 route x y z;
#X floatatom 514 266 5 0 0 0 - - -, f 5;
#X floatatom 548 266 5 0 0 0 - - -, f 5;
#X floatatom 582 266 5 0 0 0 - - -, f 5;
#X obj 514 242 route x y z;
#X floatatom 564 223 5 0 0 0 - - -, f 5;
#X floatatom 598 223 5 0 0 0 - - -, f 5;
#X floatatom 632 223 5 0 0 0 - - -, f 5;
#X obj 564 199 route x y z;
#X floatatom 614 180 5 0 0 0 - - -, f 5;
#X floatatom 648 180 5 0 0 0 - - -, f 5;
#X floatatom 682 180 5 0 0 0 - - -, f 5;
#X obj 614 156 route x y z;
#X obj 213 335 r R;
#X obj 213 387 route knuckle joint1 joint2 joint3;
#X floatatom 213 563 5 0 0 0 - - -, f 5;
#X floatatom 247 563 5 0 0 0 - - -, f 5;
#X floatatom 281 563 5 0 0 0 - - -, f 5;
#X obj 213 539 route x y z;
#X floatatom 263 520 5 0 0 0 - - -, f 5;
#X floatatom 297 520 5 0 0 0 - - -, f 5;
#X floatatom 331 520 5 0 0 0 - - -, f 5;
#X obj 263 496 route x y z;
#X floatatom 313 477 5 0 0 0 - - -, f 5;
#X floatatom 347 477 5 0 0 0 - - -, f 5;
#X floatatom 381 477 5 0 0 0 - - -, f 5;
#X obj 313 453 route x y z;
#X floatatom 363 434 5 0 0 0 - - -, f 5;
#X floatatom 397 434 5 0 0 0 - - -, f 5;
#X floatatom 431 434 5 0 0 0 - - -, f 5;
#X obj 363 410 route x y z;
#X obj 465 335 r R;
#X obj 465 387 route knuckle joint1 joint2 joint3;
#X floatatom 465 563 5 0 0 0 - - -, f 5;
#X floatatom 499 563 5 0 0 0 - - -, f 5;
#X floatatom 533 563 5 0 0 0 - - -, f 5;
#X obj 465 539 route x y z;
#X floatatom 515 520 5 0 0 0 - - -, f 5;
#X floatatom 549 520 5 0 0 0 - - -, f 5;
#X floatatom 583 520 5 0 0 0 - - -, f 5;
#X obj 515 496 route x y z;
#X floatatom 565 477 5 0 0 0 - - -, f 5;
#X floatatom 599 477 5 0 0 0 - - -, f 5;
#X floatatom 633 477 5 0 0 0 - - -, f 5;
#X obj 565 453 route x y z;
#X floatatom 615 434 5 0 0 0 - - -, f 5;
#X floatatom 649 434 5 0 0 0 - - -, f 5;
#X obj 615 410 route x y z;
#X obj 716 81 r R;
#X obj 716 133 route knuckle joint1 joint2 joint3;
#X floatatom 716 309 5 0 0 0 - - -, f 5;
#X floatatom 750 309 5 0 0 0 - - -, f 5;
#X floatatom 784 309 5 0 0 0 - - -, f 5;
#X obj 716 285 route x y z;
#X floatatom 766 266 5 0 0 0 - - -, f 5;
#X floatatom 800 266 5 0 0 0 - - -, f 5;
#X floatatom 834 266 5 0 0 0 - - -, f 5;
#X obj 766 242 route x y z;
#X floatatom 816 223 5 0 0 0 - - -, f 5;
#X floatatom 850 223 5 0 0 0 - - -, f 5;
#X floatatom 884 223 5 0 0 0 - - -, f 5;
#X obj 816 199 route x y z;
#X floatatom 866 180 5 0 0 0 - - -, f 5;
#X floatatom 900 180 5 0 0 0 - - -, f 5;
#X floatatom 934 180 5 0 0 0 - - -, f 5;
#X obj 866 156 route x y z;
#X obj 464 106 route index;
#X obj 716 106 route middle;
#X obj 213 360 route ring;
#X obj 465 360 route pinky;
#X connect 0 0 8 0;
#X connect 4 0 13 0;
#X connect 5 0 17 0;
#X connect 6 0 18 0;
#X connect 8 0 9 0;
#X connect 10 0 4 0;
#X connect 11 0 5 0;
#X connect 12 0 6 0;
#X connect 13 0 1 0;
#X connect 13 1 2 0;
#X connect 13 2 3 0;
#X connect 17 0 14 0;
#X connect 17 1 15 0;
#X connect 17 2 16 0;
#X connect 18 0 22 0;
#X connect 18 1 26 0;
#X connect 18 2 30 0;
#X connect 18 3 34 0;
#X connect 22 0 19 0;
#X connect 22 1 20 0;
#X connect 22 2 21 0;
#X connect 26 0 23 0;
#X connect 26 1 24 0;
#X connect 26 2 25 0;
#X connect 30 0 27 0;
#X connect 30 1 28 0;
#X connect 30 2 29 0;
#X connect 34 0 31 0;
#X connect 34 1 32 0;
#X connect 34 2 33 0;
#X connect 35 0 106 0;
#X connect 36 0 40 0;
#X connect 36 1 44 0;
#X connect 36 2 48 0;
#X connect 36 3 52 0;
#X connect 40 0 37 0;
#X connect 40 1 38 0;
#X connect 40 2 39 0;
#X connect 44 0 41 0;
#X connect 44 1 42 0;
#X connect 44 2 43 0;
#X connect 48 0 45 0;
#X connect 48 1 46 0;
#X connect 48 2 47 0;
#X connect 52 0 49 0;
#X connect 52 1 50 0;
#X connect 52 2 51 0;
#X connect 53 0 108 0;
#X connect 54 0 58 0;
#X connect 54 1 62 0;
#X connect 54 2 66 0;
#X connect 54 3 70 0;
#X connect 58 0 55 0;
#X connect 58 1 56 0;
#X connect 58 2 57 0;
#X connect 62 0 59 0;
#X connect 62 1 60 0;
#X connect 62 2 61 0;
#X connect 66 0 63 0;
#X connect 66 1 64 0;
#X connect 66 2 65 0;
#X connect 70 0 67 0;
#X connect 70 1 68 0;
#X connect 70 2 69 0;
#X connect 71 0 109 0;
#X connect 72 0 76 0;
#X connect 72 1 80 0;
#X connect 72 2 84 0;
#X connect 72 3 87 0;
#X connect 76 0 73 0;
#X connect 76 1 74 0;
#X connect 76 2 75 0;
#X connect 80 0 77 0;
#X connect 80 1 78 0;
#X connect 80 2 79 0;
#X connect 84 0 81 0;
#X connect 84 1 82 0;
#X connect 84 2 83 0;
#X connect 87 0 85 0;
#X connect 87 1 86 0;
#X connect 88 0 107 0;
#X connect 89 0 93 0;
#X connect 89 1 97 0;
#X connect 89 2 101 0;
#X connect 89 3 105 0;
#X connect 93 0 90 0;
#X connect 93 1 91 0;
#X connect 93 2 92 0;
#X connect 97 0 94 0;
#X connect 97 1 95 0;
#X connect 97 2 96 0;
#X connect 101 0 98 0;
#X connect 101 1 99 0;
#X connect 101 2 100 0;
#X connect 105 0 102 0;
#X connect 105 1 103 0;
#X connect 105 2 104 0;
#X connect 106 0 36 0;
#X connect 107 0 89 0;
#X connect 108 0 54 0;
#X connect 109 0 72 0;
