#N canvas 560 152 325 188 10;
#X obj 5 51 netreceive -u -b;
#X obj 5 76 oscparse;
#X obj 5 104 list trim;
#X obj 5 134 Right_Hand;
#X obj 82 134 Left_Hand;
#X obj 5 1 inlet;
#X obj 5 165 outlet;
#X obj 82 165 outlet;
#X msg 5 26 listen 8765;
#X obj 179 91 print;
#X connect 0 0 1 0;
#X connect 1 0 2 0;
#X connect 2 0 4 0;
#X connect 2 0 3 0;
#X connect 2 0 9 0;
#X connect 3 0 6 0;
#X connect 4 0 7 0;
#X connect 5 0 8 0;
#X connect 8 0 0 0;
