#N canvas 1109 105 285 136 10;
#X msg 5 6 listen 8765;
#X obj 5 31 netreceive -u -b;
#X obj 5 56 oscparse;
#X obj 5 84 list trim;
#X obj 5 114 Right_Hand;
#X obj 82 114 Left_Hand;
#X connect 0 0 1 0;
#X connect 1 0 2 0;
#X connect 2 0 3 0;
#X connect 3 0 5 0;
#X connect 3 0 4 0;
